<svg xmlns:dc="http://purl.org/dc/elements/1.1/" xmlns:cc="http://creativecommons.org/ns#" xmlns:rdf="http://www.w3.org/1999/02/22-rdf-syntax-ns#" xmlns:svg="http://www.w3.org/2000/svg" xmlns="http://www.w3.org/2000/svg" viewBox="0 0 50 50" preserveAspectRatio="xMidYMid meet"><metadata><rdf:RDF><cc:Work><dc:format>image/svg+xml</dc:format><dc:type rdf:resource="http://purl.org/dc/dcmitype/StillImage"/><dc:title>Jdenticon</dc:title><dc:creator><cc:Agent><dc:title>Daniel Mester Pirttijärvi</dc:title></cc:Agent></dc:creator><dc:source>https://github.com/dmester/jdenticon</dc:source><cc:license rdf:resource="https://github.com/dmester/jdenticon/blob/master/LICENSE"/></cc:Work></rdf:RDF></metadata><mask id="avatarsRadiusMask"><rect width="50" height="50" rx="0" ry="0" x="0" y="0" fill="#fff"/></mask><g mask="url(#avatarsRadiusMask)"><path fill="#7ecc66" d="M13 13L13 1L25 1ZM25 1L37 1L37 13ZM37 37L37 49L25 49ZM25 49L13 49L13 37ZM1 25L1 13L13 13ZM37 13L49 13L49 25ZM49 25L49 37L37 37ZM13 37L1 37L1 25ZM13 13L1 13L1 1ZM37 13L37 1L49 1ZM37 37L49 37L49 49ZM13 37L13 49L1 49Z"/><path fill="#4b9932" d="M18 21a3,3 0 1,1 6,0a3,3 0 1,1 -6,0M26 21a3,3 0 1,1 6,0a3,3 0 1,1 -6,0M26 29a3,3 0 1,1 6,0a3,3 0 1,1 -6,0M18 29a3,3 0 1,1 6,0a3,3 0 1,1 -6,0"/></g></svg>